<svg xmlns="http://www.w3.org/2000/svg" version="1.1" xmlns:xlink="http://www.w3.org/1999/xlink" xmlns:svgjs="http://svgjs.com/svgjs" width="1440" height="560" preserveAspectRatio="none" viewBox="0 0 1440 560"><g mask="url(&quot;#SvgjsMask1039&quot;)" fill="none"><rect width="1440" height="560" x="0" y="0" fill="rgba(16, 16, 16, 1)"></rect><path d="M803.5 411.05 a102.41 102.41 0 1 0 204.82 0 a102.41 102.41 0 1 0 -204.82 0z" fill="rgba(58, 5, 169, 0.51)" class="triangle-float3"></path><path d="M688.32,440.884C740.534,442.998,785.237,408.601,812.929,364.285C842.679,316.677,861.16,257.374,833.53,208.505C805.583,159.075,745.098,143.137,688.32,143.886C633.073,144.615,574.825,163.094,549.597,212.25C525.81,258.598,553.022,310.315,580.046,354.854C605.675,397.094,638.953,438.885,688.32,440.884" fill="rgba(58, 5, 169, 0.51)" class="triangle-float3"></path><path d="M978.789,330.673C999.021,330.098,1013.443,312.694,1022.446,294.566C1030.37,278.611,1029.936,260.392,1021.478,244.714C1012.522,228.113,997.632,214.508,978.789,213.643C958.52,212.712,938.86,222.879,928.723,240.455C918.594,258.018,920.776,279.447,930.614,297.175C940.786,315.505,957.834,331.268,978.789,330.673" fill="rgba(58, 5, 169, 0.51)" class="triangle-float1"></path><path d="M231.82 357.21 a118.24 118.24 0 1 0 236.48 0 a118.24 118.24 0 1 0 -236.48 0z" fill="rgba(58, 5, 169, 0.51)" class="triangle-float1"></path><path d="M187.27 458.66 a156.55 156.55 0 1 0 313.1 0 a156.55 156.55 0 1 0 -313.1 0z" fill="rgba(58, 5, 169, 0.51)" class="triangle-float2"></path><path d="M1039.3293402011857 196.1136506322535L1142.268023763474 93.37098583818188 1020.0567350028819 58.32746269844483z" fill="rgba(58, 5, 169, 0.51)" class="triangle-float3"></path><path d="M904.1 471.47 a115.16 115.16 0 1 0 230.32 0 a115.16 115.16 0 1 0 -230.32 0z" fill="rgba(58, 5, 169, 0.51)" class="triangle-float3"></path><path d="M324.42381202935553-42.70976082026703L226.2188420878654 92.45778430761504 361.3863872157475 190.66275424910518 459.5913571572376 55.495209121223105z" fill="rgba(58, 5, 169, 0.51)" class="triangle-float1"></path><path d="M180.35768140839457 352.6155869622653L91.11188157005043 238.38617225079832 66.1282666969276 441.86138680060947z" fill="rgba(58, 5, 169, 0.51)" class="triangle-float2"></path><path d="M661.7133659450295 357.49974768921015L830.3052336245373 406.0166179404163 795.8074264997247 256.59019866358227z" fill="rgba(58, 5, 169, 0.51)" class="triangle-float1"></path><path d="M848.98 121.13 a176.93 176.93 0 1 0 353.86 0 a176.93 176.93 0 1 0 -353.86 0z" fill="rgba(58, 5, 169, 0.51)" class="triangle-float2"></path><path d="M1440.0412034187725 317.55950016687495L1384.45347902068 265.7231085615913 1334.4927538118009 375.02289096137156z" fill="rgba(58, 5, 169, 0.51)" class="triangle-float3"></path><path d="M716.6 506.78 a175.79 175.79 0 1 0 351.58 0 a175.79 175.79 0 1 0 -351.58 0z" fill="rgba(58, 5, 169, 0.51)" class="triangle-float1"></path><path d="M182.56 229.09 a139.33 139.33 0 1 0 278.66 0 a139.33 139.33 0 1 0 -278.66 0z" fill="rgba(58, 5, 169, 0.51)" class="triangle-float1"></path><path d="M985.3533076134627 47.08685593352335L940.1690866012127 119.39672498724916 1012.4789556549385 164.58094599949914 1057.6631766671885 92.27107694577333z" fill="rgba(58, 5, 169, 0.51)" class="triangle-float1"></path><path d="M183.2909028993496 243.93664643789148L41.234495742937526 205.8727468606641 3.170596165710151 347.92915401707614 145.22700332212221 385.99305359430355z" fill="rgba(58, 5, 169, 0.51)" class="triangle-float2"></path><path d="M543.211,156.42C576.68,157.666,615.259,153.639,631.249,124.211C646.864,95.474,627.215,62.558,608.957,35.424C593.391,12.29,571.01,-4.461,543.211,-6.63C510.65,-9.17,474.144,-4.187,456.923,23.564C439.045,52.375,447.373,89.615,465.842,118.051C482.648,143.926,512.378,155.272,543.211,156.42" fill="rgba(58, 5, 169, 0.51)" class="triangle-float3"></path><path d="M427.129,693.443C465.828,690.854,490.756,656.061,508.491,621.567C524.387,590.65,529.325,555.638,514.032,524.419C496.598,488.829,466.746,456.524,427.129,455.477C386.122,454.393,352.349,484.052,331.885,519.604C311.475,555.063,304.782,597.999,324.44,633.88C344.819,671.075,384.812,696.274,427.129,693.443" fill="rgba(58, 5, 169, 0.51)" class="triangle-float1"></path><path d="M1017.5279153340969 457.9383479310379L947.7333155388377 510.5323512820591 1070.121918685118 527.7329477262971z" fill="rgba(58, 5, 169, 0.51)" class="triangle-float3"></path><path d="M927.116,324.653C951.262,323.667,973.059,312.756,986.848,292.91C1003.295,269.238,1017.418,239.548,1003.952,214.062C989.915,187.494,957.163,180.088,927.116,179.854C896.551,179.616,863.548,186.429,848.178,212.849C832.744,239.378,840.587,273.088,858.289,298.161C873.486,319.685,900.79,325.728,927.116,324.653" fill="rgba(58, 5, 169, 0.51)" class="triangle-float2"></path></g><defs><mask id="SvgjsMask1039"><rect width="1440" height="560" fill="#ffffff"></rect></mask><style>
            @keyframes float1 {
                0%{transform: translate(0, 0)}
                50%{transform: translate(-10px, 0)}
                100%{transform: translate(0, 0)}
            }

            .triangle-float1 {
                animation: float1 5s infinite;
            }

            @keyframes float2 {
                0%{transform: translate(0, 0)}
                50%{transform: translate(-5px, -5px)}
                100%{transform: translate(0, 0)}
            }

            .triangle-float2 {
                animation: float2 4s infinite;
            }

            @keyframes float3 {
                0%{transform: translate(0, 0)}
                50%{transform: translate(0, -10px)}
                100%{transform: translate(0, 0)}
            }

            .triangle-float3 {
                animation: float3 6s infinite;
            }
        </style></defs></svg>