<svg xmlns="http://www.w3.org/2000/svg" version="1.1" xmlns:xlink="http://www.w3.org/1999/xlink" xmlns:svgjs="http://svgjs.dev/svgjs" viewBox="0 0 800 800"><defs><linearGradient x1="50%" y1="0%" x2="50%" y2="100%" id="ffflurry-grad" gradientTransform="rotate(270)"><stop stop-color="#101010" stop-opacity="1" offset="0%"></stop><stop stop-color="hsl(162, 100%, 58%)" stop-opacity="1" offset="45%"></stop><stop stop-color="hsl(270, 73%, 53%)" stop-opacity="1" offset="100%"></stop></linearGradient></defs><rect width="100%" height="100%" fill="#101010"></rect><g fill="url(#ffflurry-grad)"><rect width="433" height="6" x="270.5" y="747" rx="3" transform="rotate(124, 487, 750)" opacity="0.43"></rect><rect width="494" height="6" x="185" y="345" rx="3" transform="rotate(124, 432, 348)" opacity="0.36"></rect><rect width="532" height="6" x="-130" y="262" rx="3" transform="rotate(124, 136, 265)" opacity="0.42"></rect><rect width="198" height="6" x="172" y="351" rx="3" transform="rotate(124, 271, 354)" opacity="0.08"></rect><rect width="181" height="6" x="215.5" y="605" rx="3" transform="rotate(124, 306, 608)" opacity="0.85"></rect><rect width="117" height="6" x="-14.5" y="314" rx="3" transform="rotate(124, 44, 317)" opacity="0.17"></rect><rect width="507" height="6" x="88.5" y="688" rx="3" transform="rotate(124, 342, 691)" opacity="0.79"></rect><rect width="333" height="6" x="63.5" y="472" rx="3" transform="rotate(124, 230, 475)" opacity="0.86"></rect><rect width="179" height="6" x="686.5" y="441" rx="3" transform="rotate(124, 776, 444)" opacity="0.24"></rect><rect width="117" height="6" x="492.5" y="404" rx="3" transform="rotate(124, 551, 407)" opacity="0.20"></rect><rect width="432" height="6" x="457" y="747" rx="3" transform="rotate(124, 673, 750)" opacity="0.12"></rect><rect width="273" height="6" x="-62.5" y="376" rx="3" transform="rotate(124, 74, 379)" opacity="0.57"></rect><rect width="156" height="6" x="-6" y="235" rx="3" transform="rotate(124, 72, 238)" opacity="0.12"></rect><rect width="354" height="6" x="-23" y="513" rx="3" transform="rotate(124, 154, 516)" opacity="0.15"></rect><rect width="459" height="6" x="382.5" y="675" rx="3" transform="rotate(124, 612, 678)" opacity="0.39"></rect><rect width="130" height="6" x="562" y="185" rx="3" transform="rotate(124, 627, 188)" opacity="0.72"></rect><rect width="692" height="6" x="-300" y="54" rx="3" transform="rotate(124, 46, 57)" opacity="0.16"></rect><rect width="562" height="6" x="102" y="436" rx="3" transform="rotate(124, 383, 439)" opacity="0.67"></rect><rect width="143" height="6" x="-53.5" y="233" rx="3" transform="rotate(124, 18, 236)" opacity="0.81"></rect><rect width="601" height="6" x="-39.5" y="720" rx="3" transform="rotate(124, 261, 723)" opacity="0.50"></rect><rect width="277" height="6" x="-116.5" y="416" rx="3" transform="rotate(124, 22, 419)" opacity="0.48"></rect><rect width="470" height="6" x="517" y="541" rx="3" transform="rotate(124, 752, 544)" opacity="0.87"></rect><rect width="204" height="6" x="-23" y="676" rx="3" transform="rotate(124, 79, 679)" opacity="0.69"></rect><rect width="372" height="6" x="116" y="526" rx="3" transform="rotate(124, 302, 529)" opacity="0.17"></rect><rect width="288" height="6" x="422" y="749" rx="3" transform="rotate(124, 566, 752)" opacity="0.62"></rect><rect width="708" height="6" x="213" y="59" rx="3" transform="rotate(124, 567, 62)" opacity="0.39"></rect><rect width="271" height="6" x="499.5" y="395" rx="3" transform="rotate(124, 635, 398)" opacity="0.40"></rect><rect width="56" height="6" x="130" y="663" rx="3" transform="rotate(124, 158, 666)" opacity="0.10"></rect><rect width="234" height="6" x="641" y="646" rx="3" transform="rotate(124, 758, 649)" opacity="0.24"></rect><rect width="563" height="6" x="161.5" y="235" rx="3" transform="rotate(124, 443, 238)" opacity="0.41"></rect><rect width="67" height="6" x="177.5" y="290" rx="3" transform="rotate(124, 211, 293)" opacity="0.50"></rect><rect width="228" height="6" x="308" y="60" rx="3" transform="rotate(124, 422, 63)" opacity="0.40"></rect><rect width="583" height="6" x="451.5" y="343" rx="3" transform="rotate(124, 743, 346)" opacity="0.94"></rect><rect width="104" height="6" x="472" y="307" rx="3" transform="rotate(124, 524, 310)" opacity="0.62"></rect><rect width="486" height="6" x="-90" y="51" rx="3" transform="rotate(124, 153, 54)" opacity="0.61"></rect><rect width="85" height="6" x="634.5" y="479" rx="3" transform="rotate(124, 677, 482)" opacity="0.43"></rect><rect width="518" height="6" x="504" y="193" rx="3" transform="rotate(124, 763, 196)" opacity="0.49"></rect><rect width="70" height="6" x="651" y="609" rx="3" transform="rotate(124, 686, 612)" opacity="0.86"></rect><rect width="390" height="6" x="-138" y="758" rx="3" transform="rotate(124, 57, 761)" opacity="0.56"></rect><rect width="54" height="6" x="83" y="582" rx="3" transform="rotate(124, 110, 585)" opacity="0.48"></rect><rect width="439" height="6" x="395.5" y="505" rx="3" transform="rotate(124, 615, 508)" opacity="0.55"></rect><rect width="650" height="6" x="394" y="64" rx="3" transform="rotate(124, 719, 67)" opacity="0.32"></rect><rect width="88" height="6" x="538" y="588" rx="3" transform="rotate(124, 582, 591)" opacity="0.94"></rect><rect width="270" height="6" x="287" y="749" rx="3" transform="rotate(124, 422, 752)" opacity="0.17"></rect><rect width="259" height="6" x="87.5" y="592" rx="3" transform="rotate(124, 217, 595)" opacity="0.73"></rect><rect width="184" height="6" x="55" y="354" rx="3" transform="rotate(124, 147, 357)" opacity="0.47"></rect><rect width="54" height="6" x="435" y="441" rx="3" transform="rotate(124, 462, 444)" opacity="0.30"></rect><rect width="432" height="6" x="-176" y="516" rx="3" transform="rotate(124, 40, 519)" opacity="0.89"></rect><rect width="55" height="6" x="681.5" y="252" rx="3" transform="rotate(124, 709, 255)" opacity="0.08"></rect><rect width="287" height="6" x="614.5" y="772" rx="3" transform="rotate(124, 758, 775)" opacity="0.95"></rect><rect width="317" height="6" x="-72.5" y="456" rx="3" transform="rotate(124, 86, 459)" opacity="0.73"></rect><rect width="98" height="6" x="478" y="498" rx="3" transform="rotate(124, 527, 501)" opacity="0.68"></rect><rect width="64" height="6" x="439" y="562" rx="3" transform="rotate(124, 471, 565)" opacity="0.18"></rect><rect width="246" height="6" x="243" y="191" rx="3" transform="rotate(124, 366, 194)" opacity="0.88"></rect><rect width="86" height="6" x="257" y="451" rx="3" transform="rotate(124, 300, 454)" opacity="0.82"></rect><rect width="352" height="6" x="168" y="764" rx="3" transform="rotate(124, 344, 767)" opacity="0.20"></rect><rect width="161" height="6" x="-59.5" y="672" rx="3" transform="rotate(124, 21, 675)" opacity="0.87"></rect><rect width="447" height="6" x="-187.5" y="592" rx="3" transform="rotate(124, 36, 595)" opacity="0.27"></rect><rect width="119" height="6" x="217.5" y="241" rx="3" transform="rotate(124, 277, 244)" opacity="0.37"></rect><rect width="515" height="6" x="59.5" y="134" rx="3" transform="rotate(124, 317, 137)" opacity="0.57"></rect><rect width="85" height="6" x="715.5" y="715" rx="3" transform="rotate(124, 758, 718)" opacity="0.29"></rect><rect width="345" height="6" x="19.5" y="162" rx="3" transform="rotate(124, 192, 165)" opacity="0.55"></rect><rect width="487" height="6" x="-60.5" y="416" rx="3" transform="rotate(124, 183, 419)" opacity="0.20"></rect><rect width="169" height="6" x="307.5" y="531" rx="3" transform="rotate(124, 392, 534)" opacity="0.08"></rect><rect width="128" height="6" x="333" y="638" rx="3" transform="rotate(124, 397, 641)" opacity="0.85"></rect><rect width="281" height="6" x="578.5" y="430" rx="3" transform="rotate(124, 719, 433)" opacity="0.15"></rect><rect width="384" height="6" x="298" y="653" rx="3" transform="rotate(124, 490, 656)" opacity="0.36"></rect><rect width="231" height="6" x="225.5" y="373" rx="3" transform="rotate(124, 341, 376)" opacity="0.09"></rect><rect width="347" height="6" x="101.5" y="49" rx="3" transform="rotate(124, 275, 52)" opacity="0.11"></rect><rect width="512" height="6" x="-82" y="753" rx="3" transform="rotate(124, 174, 756)" opacity="0.54"></rect><rect width="473" height="6" x="126.5" y="286" rx="3" transform="rotate(124, 363, 289)" opacity="0.34"></rect><rect width="287" height="6" x="483.5" y="305" rx="3" transform="rotate(124, 627, 308)" opacity="0.95"></rect><rect width="590" height="6" x="215" y="172" rx="3" transform="rotate(124, 510, 175)" opacity="0.45"></rect><rect width="151" height="6" x="-4.5" y="152" rx="3" transform="rotate(124, 71, 155)" opacity="0.91"></rect></g></svg>