<svg id="visual" viewBox="0 0 960 540" width="960" height="540" xmlns="http://www.w3.org/2000/svg" xmlns:xlink="http://www.w3.org/1999/xlink" version="1.1"><rect x="0" y="0" width="960" height="540" fill="#001220"></rect><path d="M0 440L13.3 432.3C26.7 424.7 53.3 409.3 80 405.3C106.7 401.3 133.3 408.7 160 427.7C186.7 446.7 213.3 477.3 240 488C266.7 498.7 293.3 489.3 320 476.3C346.7 463.3 373.3 446.7 400 430.5C426.7 414.3 453.3 398.7 480 411.8C506.7 425 533.3 467 560 487.3C586.7 507.7 613.3 506.3 640 507.8C666.7 509.3 693.3 513.7 720 509.7C746.7 505.7 773.3 493.3 800 471.3C826.7 449.3 853.3 417.7 880 421.5C906.7 425.3 933.3 464.7 946.7 484.3L960 504L960 0L946.7 0C933.3 0 906.7 0 880 0C853.3 0 826.7 0 800 0C773.3 0 746.7 0 720 0C693.3 0 666.7 0 640 0C613.3 0 586.7 0 560 0C533.3 0 506.7 0 480 0C453.3 0 426.7 0 400 0C373.3 0 346.7 0 320 0C293.3 0 266.7 0 240 0C213.3 0 186.7 0 160 0C133.3 0 106.7 0 80 0C53.3 0 26.7 0 13.3 0L0 0Z" fill="#6600ff"></path><path d="M0 389L13.3 397.7C26.7 406.3 53.3 423.7 80 435.8C106.7 448 133.3 455 160 448C186.7 441 213.3 420 240 406.2C266.7 392.3 293.3 385.7 320 382.8C346.7 380 373.3 381 400 397C426.7 413 453.3 444 480 457.2C506.7 470.3 533.3 465.7 560 461.8C586.7 458 613.3 455 640 444.2C666.7 433.3 693.3 414.7 720 409.8C746.7 405 773.3 414 800 413C826.7 412 853.3 401 880 404.5C906.7 408 933.3 426 946.7 435L960 444L960 0L946.7 0C933.3 0 906.7 0 880 0C853.3 0 826.7 0 800 0C773.3 0 746.7 0 720 0C693.3 0 666.7 0 640 0C613.3 0 586.7 0 560 0C533.3 0 506.7 0 480 0C453.3 0 426.7 0 400 0C373.3 0 346.7 0 320 0C293.3 0 266.7 0 240 0C213.3 0 186.7 0 160 0C133.3 0 106.7 0 80 0C53.3 0 26.7 0 13.3 0L0 0Z" fill="#aa00e2"></path><path d="M0 364L13.3 368.8C26.7 373.7 53.3 383.3 80 383.5C106.7 383.7 133.3 374.3 160 365.8C186.7 357.3 213.3 349.7 240 362.2C266.7 374.7 293.3 407.3 320 411C346.7 414.7 373.3 389.3 400 376.3C426.7 363.3 453.3 362.7 480 370.7C506.7 378.7 533.3 395.3 560 392.8C586.7 390.3 613.3 368.7 640 365.2C666.7 361.7 693.3 376.3 720 389.3C746.7 402.3 773.3 413.7 800 421.5C826.7 429.3 853.3 433.7 880 428.2C906.7 422.7 933.3 407.3 946.7 399.7L960 392L960 0L946.7 0C933.3 0 906.7 0 880 0C853.3 0 826.7 0 800 0C773.3 0 746.7 0 720 0C693.3 0 666.7 0 640 0C613.3 0 586.7 0 560 0C533.3 0 506.7 0 480 0C453.3 0 426.7 0 400 0C373.3 0 346.7 0 320 0C293.3 0 266.7 0 240 0C213.3 0 186.7 0 160 0C133.3 0 106.7 0 80 0C53.3 0 26.7 0 13.3 0L0 0Z" fill="#d000c6"></path><path d="M0 397L13.3 394.2C26.7 391.3 53.3 385.7 80 368.8C106.7 352 133.3 324 160 323.5C186.7 323 213.3 350 240 355C266.7 360 293.3 343 320 342.5C346.7 342 373.3 358 400 361.2C426.7 364.3 453.3 354.7 480 339.8C506.7 325 533.3 305 560 297.8C586.7 290.7 613.3 296.3 640 311C666.7 325.7 693.3 349.3 720 355.2C746.7 361 773.3 349 800 341.8C826.7 334.7 853.3 332.3 880 335.3C906.7 338.3 933.3 346.7 946.7 350.8L960 355L960 0L946.7 0C933.3 0 906.7 0 880 0C853.3 0 826.7 0 800 0C773.3 0 746.7 0 720 0C693.3 0 666.7 0 640 0C613.3 0 586.7 0 560 0C533.3 0 506.7 0 480 0C453.3 0 426.7 0 400 0C373.3 0 346.7 0 320 0C293.3 0 266.7 0 240 0C213.3 0 186.7 0 160 0C133.3 0 106.7 0 80 0C53.3 0 26.7 0 13.3 0L0 0Z" fill="#e800aa"></path><path d="M0 338L13.3 328C26.7 318 53.3 298 80 296.3C106.7 294.7 133.3 311.3 160 316.8C186.7 322.3 213.3 316.7 240 311.3C266.7 306 293.3 301 320 308.5C346.7 316 373.3 336 400 339.8C426.7 343.7 453.3 331.3 480 331.3C506.7 331.3 533.3 343.7 560 344.7C586.7 345.7 613.3 335.3 640 325.3C666.7 315.3 693.3 305.7 720 303.5C746.7 301.3 773.3 306.7 800 298.7C826.7 290.7 853.3 269.3 880 268.8C906.7 268.3 933.3 288.7 946.7 298.8L960 309L960 0L946.7 0C933.3 0 906.7 0 880 0C853.3 0 826.7 0 800 0C773.3 0 746.7 0 720 0C693.3 0 666.7 0 640 0C613.3 0 586.7 0 560 0C533.3 0 506.7 0 480 0C453.3 0 426.7 0 400 0C373.3 0 346.7 0 320 0C293.3 0 266.7 0 240 0C213.3 0 186.7 0 160 0C133.3 0 106.7 0 80 0C53.3 0 26.7 0 13.3 0L0 0Z" fill="#f60092"></path><path d="M0 241L13.3 250.8C26.7 260.7 53.3 280.3 80 287.5C106.7 294.7 133.3 289.3 160 288.7C186.7 288 213.3 292 240 296C266.7 300 293.3 304 320 291.7C346.7 279.3 373.3 250.7 400 239.5C426.7 228.3 453.3 234.7 480 247C506.7 259.3 533.3 277.7 560 276C586.7 274.3 613.3 252.7 640 242.8C666.7 233 693.3 235 720 235C746.7 235 773.3 233 800 230.8C826.7 228.7 853.3 226.3 880 235.3C906.7 244.3 933.3 264.7 946.7 274.8L960 285L960 0L946.7 0C933.3 0 906.7 0 880 0C853.3 0 826.7 0 800 0C773.3 0 746.7 0 720 0C693.3 0 666.7 0 640 0C613.3 0 586.7 0 560 0C533.3 0 506.7 0 480 0C453.3 0 426.7 0 400 0C373.3 0 346.7 0 320 0C293.3 0 266.7 0 240 0C213.3 0 186.7 0 160 0C133.3 0 106.7 0 80 0C53.3 0 26.7 0 13.3 0L0 0Z" fill="#fe007d"></path><path d="M0 179L13.3 179.7C26.7 180.3 53.3 181.7 80 192.5C106.7 203.3 133.3 223.7 160 229.8C186.7 236 213.3 228 240 219.2C266.7 210.3 293.3 200.7 320 196.7C346.7 192.7 373.3 194.3 400 197C426.7 199.7 453.3 203.3 480 201.8C506.7 200.3 533.3 193.7 560 199.8C586.7 206 613.3 225 640 225.7C666.7 226.3 693.3 208.7 720 206C746.7 203.3 773.3 215.7 800 222.7C826.7 229.7 853.3 231.3 880 237.5C906.7 243.7 933.3 254.3 946.7 259.7L960 265L960 0L946.7 0C933.3 0 906.7 0 880 0C853.3 0 826.7 0 800 0C773.3 0 746.7 0 720 0C693.3 0 666.7 0 640 0C613.3 0 586.7 0 560 0C533.3 0 506.7 0 480 0C453.3 0 426.7 0 400 0C373.3 0 346.7 0 320 0C293.3 0 266.7 0 240 0C213.3 0 186.7 0 160 0C133.3 0 106.7 0 80 0C53.3 0 26.7 0 13.3 0L0 0Z" fill="#ff136b"></path><path d="M0 219L13.3 219.8C26.7 220.7 53.3 222.3 80 220.3C106.7 218.3 133.3 212.7 160 201.7C186.7 190.7 213.3 174.3 240 173C266.7 171.7 293.3 185.3 320 191.2C346.7 197 373.3 195 400 199.2C426.7 203.3 453.3 213.7 480 209.2C506.7 204.7 533.3 185.3 560 175.2C586.7 165 613.3 164 640 162C666.7 160 693.3 157 720 160.7C746.7 164.3 773.3 174.7 800 174.3C826.7 174 853.3 163 880 162.5C906.7 162 933.3 172 946.7 177L960 182L960 0L946.7 0C933.3 0 906.7 0 880 0C853.3 0 826.7 0 800 0C773.3 0 746.7 0 720 0C693.3 0 666.7 0 640 0C613.3 0 586.7 0 560 0C533.3 0 506.7 0 480 0C453.3 0 426.7 0 400 0C373.3 0 346.7 0 320 0C293.3 0 266.7 0 240 0C213.3 0 186.7 0 160 0C133.3 0 106.7 0 80 0C53.3 0 26.7 0 13.3 0L0 0Z" fill="#ff2d5a"></path><path d="M0 191L13.3 186.2C26.7 181.3 53.3 171.7 80 163.5C106.7 155.3 133.3 148.7 160 140.7C186.7 132.7 213.3 123.3 240 122C266.7 120.7 293.3 127.3 320 137.8C346.7 148.3 373.3 162.7 400 171.5C426.7 180.3 453.3 183.7 480 175.5C506.7 167.3 533.3 147.7 560 137.2C586.7 126.7 613.3 125.3 640 133.2C666.7 141 693.3 158 720 158.3C746.7 158.7 773.3 142.3 800 137.2C826.7 132 853.3 138 880 136.5C906.7 135 933.3 126 946.7 121.5L960 117L960 0L946.7 0C933.3 0 906.7 0 880 0C853.3 0 826.7 0 800 0C773.3 0 746.7 0 720 0C693.3 0 666.7 0 640 0C613.3 0 586.7 0 560 0C533.3 0 506.7 0 480 0C453.3 0 426.7 0 400 0C373.3 0 346.7 0 320 0C293.3 0 266.7 0 240 0C213.3 0 186.7 0 160 0C133.3 0 106.7 0 80 0C53.3 0 26.7 0 13.3 0L0 0Z" fill="#ff4249"></path><path d="M0 125L13.3 124.7C26.7 124.3 53.3 123.7 80 121.7C106.7 119.7 133.3 116.3 160 118.5C186.7 120.7 213.3 128.3 240 133.3C266.7 138.3 293.3 140.7 320 141C346.7 141.3 373.3 139.7 400 133.2C426.7 126.7 453.3 115.3 480 115C506.7 114.7 533.3 125.3 560 127.2C586.7 129 613.3 122 640 123.2C666.7 124.3 693.3 133.7 720 138.2C746.7 142.7 773.3 142.3 800 139.5C826.7 136.7 853.3 131.3 880 130.2C906.7 129 933.3 132 946.7 133.5L960 135L960 0L946.7 0C933.3 0 906.7 0 880 0C853.3 0 826.7 0 800 0C773.3 0 746.7 0 720 0C693.3 0 666.7 0 640 0C613.3 0 586.7 0 560 0C533.3 0 506.7 0 480 0C453.3 0 426.7 0 400 0C373.3 0 346.7 0 320 0C293.3 0 266.7 0 240 0C213.3 0 186.7 0 160 0C133.3 0 106.7 0 80 0C53.3 0 26.7 0 13.3 0L0 0Z" fill="#ff5538"></path><path d="M0 103L13.3 94.3C26.7 85.7 53.3 68.3 80 58.2C106.7 48 133.3 45 160 43.5C186.7 42 213.3 42 240 46.7C266.7 51.3 293.3 60.7 320 66.5C346.7 72.3 373.3 74.7 400 77.8C426.7 81 453.3 85 480 79.2C506.7 73.3 533.3 57.7 560 50.3C586.7 43 613.3 44 640 52.7C666.7 61.3 693.3 77.7 720 85.2C746.7 92.7 773.3 91.3 800 88.8C826.7 86.3 853.3 82.7 880 83.8C906.7 85 933.3 91 946.7 94L960 97L960 0L946.7 0C933.3 0 906.7 0 880 0C853.3 0 826.7 0 800 0C773.3 0 746.7 0 720 0C693.3 0 666.7 0 640 0C613.3 0 586.7 0 560 0C533.3 0 506.7 0 480 0C453.3 0 426.7 0 400 0C373.3 0 346.7 0 320 0C293.3 0 266.7 0 240 0C213.3 0 186.7 0 160 0C133.3 0 106.7 0 80 0C53.3 0 26.7 0 13.3 0L0 0Z" fill="#fe6726"></path><path d="M0 34L13.3 31.7C26.7 29.3 53.3 24.7 80 27.3C106.7 30 133.3 40 160 48.2C186.7 56.3 213.3 62.7 240 57.5C266.7 52.3 293.3 35.7 320 33.7C346.7 31.7 373.3 44.3 400 49C426.7 53.7 453.3 50.3 480 51.8C506.7 53.3 533.3 59.7 560 56.3C586.7 53 613.3 40 640 31.8C666.7 23.7 693.3 20.3 720 18C746.7 15.7 773.3 14.3 800 14.2C826.7 14 853.3 15 880 22.5C906.7 30 933.3 44 946.7 51L960 58L960 0L946.7 0C933.3 0 906.7 0 880 0C853.3 0 826.7 0 800 0C773.3 0 746.7 0 720 0C693.3 0 666.7 0 640 0C613.3 0 586.7 0 560 0C533.3 0 506.7 0 480 0C453.3 0 426.7 0 400 0C373.3 0 346.7 0 320 0C293.3 0 266.7 0 240 0C213.3 0 186.7 0 160 0C133.3 0 106.7 0 80 0C53.3 0 26.7 0 13.3 0L0 0Z" fill="#f7770f"></path></svg>